<svg width="1184" height="1009" viewBox="0 0 1184 1009" fill="none" xmlns="http://www.w3.org/2000/svg">
<rect x="187.244" y="108.188" width="127.366" height="550.316" fill="#2D2C6F" fill-opacity="0.71"/>
<rect x="868.276" y="108.188" width="129.048" height="550.316" fill="#403AA5"/>
<rect x="527.76" y="108.188" width="129.048" height="550.316" fill="#3B31AD" fill-opacity="0.44"/>
<rect x="357.502" y="108.188" width="129.048" height="550.316" fill="#5F5E8A" fill-opacity="0.71"/>
<rect x="698.018" y="108.188" width="129.048" height="550.316" fill="#6C67BD"/>
<path d="M592 429L241.26 107.25L942.74 107.25L592 429Z" fill="white"/>
<path d="M591.271 238.935L472.391 103.984L710.152 103.984L591.271 238.935Z" fill="#2D2C6F" fill-opacity="0.71"/>
<line x1="284.006" y1="678.533" x2="994.338" y2="98.0882" stroke="white" stroke-width="63.1938"/>
<path d="M23.87 872C20.798 872 17.982 871.275 15.422 869.824C12.9473 868.288 10.942 866.283 9.40601 863.808C7.95535 861.248 7.23001 858.432 7.23001 855.36V796.48C7.23001 793.408 7.95535 790.635 9.40601 788.16C10.942 785.6 12.9473 783.595 15.422 782.144C17.982 780.608 20.798 779.84 23.87 779.84H99.134V793.664H25.79C24.4247 793.664 23.2727 794.133 22.334 795.072C21.4807 795.925 21.054 797.035 21.054 798.4V853.44C21.054 854.805 21.4807 855.957 22.334 856.896C23.2727 857.749 24.4247 858.176 25.79 858.176H99.134V872H23.87ZM128.48 872C125.408 872 122.635 871.232 120.16 869.696C117.685 868.16 115.68 866.155 114.144 863.68C112.608 861.205 111.84 858.432 111.84 855.36V814.4C111.84 811.328 112.608 808.555 114.144 806.08C115.68 803.605 117.685 801.6 120.16 800.064C122.635 798.528 125.408 797.76 128.48 797.76H170.72C173.792 797.76 176.565 798.528 179.04 800.064C181.6 801.515 183.605 803.52 185.056 806.08C186.592 808.64 187.36 811.413 187.36 814.4V855.36C187.36 858.432 186.592 861.205 185.056 863.68C183.605 866.155 181.6 868.16 179.04 869.696C176.565 871.232 173.792 872 170.72 872H128.48ZM128.864 858.176H170.336C171.189 858.176 171.915 857.877 172.512 857.28C173.109 856.597 173.408 855.829 173.408 854.976V814.784C173.408 813.931 173.109 813.205 172.512 812.608C171.915 811.925 171.189 811.584 170.336 811.584H128.864C128.011 811.584 127.243 811.925 126.56 812.608C125.963 813.205 125.664 813.931 125.664 814.784V854.976C125.664 855.829 125.963 856.597 126.56 857.28C127.243 857.877 128.011 858.176 128.864 858.176ZM214.096 872C211.024 872 208.251 871.232 205.776 869.696C203.301 868.16 201.296 866.155 199.76 863.68C198.224 861.205 197.456 858.432 197.456 855.36V853.44H211.28V854.976C211.28 855.829 211.579 856.597 212.176 857.28C212.859 857.877 213.627 858.176 214.48 858.176H255.952C256.805 858.176 257.531 857.877 258.128 857.28C258.725 856.597 259.024 855.829 259.024 854.976V844.992C259.024 844.139 258.725 843.413 258.128 842.816C257.531 842.133 256.805 841.792 255.952 841.792H214.096C211.024 841.792 208.251 841.067 205.776 839.616C203.301 838.08 201.296 836.075 199.76 833.6C198.224 831.04 197.456 828.224 197.456 825.152V814.4C197.456 811.328 198.224 808.555 199.76 806.08C201.296 803.605 203.301 801.6 205.776 800.064C208.251 798.528 211.024 797.76 214.096 797.76H256.336C259.408 797.76 262.181 798.528 264.656 800.064C267.216 801.6 269.221 803.605 270.672 806.08C272.208 808.555 272.976 811.328 272.976 814.4V816.32H259.024V814.784C259.024 813.931 258.725 813.205 258.128 812.608C257.531 811.925 256.805 811.584 255.952 811.584H214.48C213.627 811.584 212.859 811.925 212.176 812.608C211.579 813.205 211.28 813.931 211.28 814.784V824.768C211.28 825.621 211.579 826.389 212.176 827.072C212.859 827.669 213.627 827.968 214.48 827.968H256.336C259.408 827.968 262.181 828.736 264.656 830.272C267.216 831.723 269.221 833.728 270.672 836.288C272.208 838.763 272.976 841.536 272.976 844.608V855.36C272.976 858.432 272.208 861.205 270.672 863.68C269.221 866.155 267.216 868.16 264.656 869.696C262.181 871.232 259.408 872 256.336 872H214.096ZM302.486 872C299.414 872 296.598 871.232 294.038 869.696C291.563 868.16 289.558 866.155 288.022 863.68C286.571 861.205 285.846 858.432 285.846 855.36V774.336H299.67V797.76H330.134V811.584H299.67V854.976C299.67 855.829 299.969 856.597 300.566 857.28C301.249 857.877 302.017 858.176 302.87 858.176H330.134V872H302.486ZM358.108 872C355.036 872 352.22 871.232 349.66 869.696C347.185 868.16 345.18 866.155 343.644 863.68C342.193 861.205 341.468 858.432 341.468 855.36V827.968H403.036V814.784C403.036 813.931 402.737 813.205 402.14 812.608C401.543 811.925 400.817 811.584 399.964 811.584H341.468V797.76H400.348C403.42 797.76 406.193 798.528 408.668 800.064C411.228 801.515 413.233 803.52 414.684 806.08C416.22 808.64 416.988 811.413 416.988 814.4V872H358.108ZM358.492 858.176H403.036V840.896H355.292V854.976C355.292 855.829 355.591 856.597 356.188 857.28C356.871 857.877 357.639 858.176 358.492 858.176ZM484.62 872C481.548 872 478.732 871.275 476.172 869.824C473.697 868.288 471.692 866.283 470.156 863.808C468.705 861.248 467.98 858.432 467.98 855.36V796.48C467.98 793.408 468.705 790.635 470.156 788.16C471.692 785.6 473.697 783.595 476.172 782.144C478.732 780.608 481.548 779.84 484.62 779.84H559.884V793.664H486.54C485.175 793.664 484.023 794.133 483.084 795.072C482.231 795.925 481.804 797.035 481.804 798.4V853.44C481.804 854.805 482.231 855.957 483.084 856.896C484.023 857.749 485.175 858.176 486.54 858.176H559.884V872H484.62ZM589.23 872C586.158 872 583.385 871.232 580.91 869.696C578.435 868.16 576.43 866.155 574.894 863.68C573.358 861.205 572.59 858.432 572.59 855.36V814.4C572.59 811.328 573.358 808.555 574.894 806.08C576.43 803.605 578.435 801.6 580.91 800.064C583.385 798.528 586.158 797.76 589.23 797.76H631.47C634.542 797.76 637.315 798.528 639.79 800.064C642.35 801.515 644.355 803.52 645.806 806.08C647.342 808.64 648.11 811.413 648.11 814.4V855.36C648.11 858.432 647.342 861.205 645.806 863.68C644.355 866.155 642.35 868.16 639.79 869.696C637.315 871.232 634.542 872 631.47 872H589.23ZM589.614 858.176H631.086C631.939 858.176 632.665 857.877 633.262 857.28C633.859 856.597 634.158 855.829 634.158 854.976V814.784C634.158 813.931 633.859 813.205 633.262 812.608C632.665 811.925 631.939 811.584 631.086 811.584H589.614C588.761 811.584 587.993 811.925 587.31 812.608C586.713 813.205 586.414 813.931 586.414 814.784V854.976C586.414 855.829 586.713 856.597 587.31 857.28C587.993 857.877 588.761 858.176 589.614 858.176ZM674.986 872C671.914 872 669.098 871.232 666.538 869.696C664.063 868.16 662.058 866.155 660.522 863.68C659.071 861.205 658.346 858.432 658.346 855.36V797.76H672.17V854.976C672.17 855.829 672.469 856.597 673.066 857.28C673.749 857.877 674.517 858.176 675.37 858.176H716.842C717.695 858.176 718.421 857.877 719.018 857.28C719.701 856.597 720.042 855.829 720.042 854.976V797.76H733.866V855.36C733.866 858.432 733.098 861.205 731.562 863.68C730.111 866.155 728.106 868.16 725.546 869.696C723.071 871.232 720.298 872 717.226 872H674.986ZM761.096 872C758.024 872 755.251 871.232 752.776 869.696C750.301 868.16 748.296 866.155 746.76 863.68C745.224 861.205 744.456 858.432 744.456 855.36V853.44H758.28V854.976C758.28 855.829 758.579 856.597 759.176 857.28C759.859 857.877 760.627 858.176 761.48 858.176H802.952C803.805 858.176 804.531 857.877 805.128 857.28C805.725 856.597 806.024 855.829 806.024 854.976V844.992C806.024 844.139 805.725 843.413 805.128 842.816C804.531 842.133 803.805 841.792 802.952 841.792H761.096C758.024 841.792 755.251 841.067 752.776 839.616C750.301 838.08 748.296 836.075 746.76 833.6C745.224 831.04 744.456 828.224 744.456 825.152V814.4C744.456 811.328 745.224 808.555 746.76 806.08C748.296 803.605 750.301 801.6 752.776 800.064C755.251 798.528 758.024 797.76 761.096 797.76H803.336C806.408 797.76 809.181 798.528 811.656 800.064C814.216 801.6 816.221 803.605 817.672 806.08C819.208 808.555 819.976 811.328 819.976 814.4V816.32H806.024V814.784C806.024 813.931 805.725 813.205 805.128 812.608C804.531 811.925 803.805 811.584 802.952 811.584H761.48C760.627 811.584 759.859 811.925 759.176 812.608C758.579 813.205 758.28 813.931 758.28 814.784V824.768C758.28 825.621 758.579 826.389 759.176 827.072C759.859 827.669 760.627 827.968 761.48 827.968H803.336C806.408 827.968 809.181 828.736 811.656 830.272C814.216 831.723 816.221 833.728 817.672 836.288C819.208 838.763 819.976 841.536 819.976 844.608V855.36C819.976 858.432 819.208 861.205 817.672 863.68C816.221 866.155 814.216 868.16 811.656 869.696C809.181 871.232 806.408 872 803.336 872H761.096ZM848.846 872C845.774 872 843.001 871.232 840.526 869.696C838.051 868.16 836.046 866.155 834.51 863.68C832.974 861.205 832.206 858.432 832.206 855.36V853.44H846.03V854.976C846.03 855.829 846.329 856.597 846.926 857.28C847.609 857.877 848.377 858.176 849.23 858.176H890.702C891.555 858.176 892.281 857.877 892.878 857.28C893.475 856.597 893.774 855.829 893.774 854.976V844.992C893.774 844.139 893.475 843.413 892.878 842.816C892.281 842.133 891.555 841.792 890.702 841.792H848.846C845.774 841.792 843.001 841.067 840.526 839.616C838.051 838.08 836.046 836.075 834.51 833.6C832.974 831.04 832.206 828.224 832.206 825.152V814.4C832.206 811.328 832.974 808.555 834.51 806.08C836.046 803.605 838.051 801.6 840.526 800.064C843.001 798.528 845.774 797.76 848.846 797.76H891.086C894.158 797.76 896.931 798.528 899.406 800.064C901.966 801.6 903.971 803.605 905.422 806.08C906.958 808.555 907.726 811.328 907.726 814.4V816.32H893.774V814.784C893.774 813.931 893.475 813.205 892.878 812.608C892.281 811.925 891.555 811.584 890.702 811.584H849.23C848.377 811.584 847.609 811.925 846.926 812.608C846.329 813.205 846.03 813.931 846.03 814.784V824.768C846.03 825.621 846.329 826.389 846.926 827.072C847.609 827.669 848.377 827.968 849.23 827.968H891.086C894.158 827.968 896.931 828.736 899.406 830.272C901.966 831.723 903.971 833.728 905.422 836.288C906.958 838.763 907.726 841.536 907.726 844.608V855.36C907.726 858.432 906.958 861.205 905.422 863.68C903.971 866.155 901.966 868.16 899.406 869.696C896.931 871.232 894.158 872 891.086 872H848.846ZM934.855 872C931.783 872 929.01 871.232 926.535 869.696C924.06 868.16 922.055 866.155 920.519 863.68C918.983 861.205 918.215 858.432 918.215 855.36V814.4C918.215 811.328 918.983 808.555 920.519 806.08C922.055 803.605 924.06 801.6 926.535 800.064C929.01 798.528 931.783 797.76 934.855 797.76H977.095C980.167 797.76 982.94 798.528 985.415 800.064C987.975 801.515 989.98 803.52 991.431 806.08C992.967 808.64 993.735 811.413 993.735 814.4V841.792H932.039V854.976C932.039 855.829 932.338 856.597 932.935 857.28C933.618 857.877 934.386 858.176 935.239 858.176H993.735V872H934.855ZM932.039 828.864H979.783V814.784C979.783 813.931 979.484 813.205 978.887 812.608C978.29 811.925 977.564 811.584 976.711 811.584H935.239C934.386 811.584 933.618 811.925 932.935 812.608C932.338 813.205 932.039 813.931 932.039 814.784V828.864ZM1006.97 872V797.76H1020.79V872H1006.97ZM1006.97 787.264V773.44H1020.79V787.264H1006.97ZM1035.97 872V814.4C1035.97 811.328 1036.74 808.555 1038.27 806.08C1039.81 803.605 1041.81 801.6 1044.29 800.064C1046.85 798.528 1049.62 797.76 1052.61 797.76H1094.08V811.584H1052.99C1052.14 811.584 1051.37 811.925 1050.69 812.608C1050.09 813.205 1049.79 813.931 1049.79 814.784V872H1035.97ZM1118.48 872C1115.41 872 1112.63 871.232 1110.16 869.696C1107.69 868.16 1105.68 866.155 1104.14 863.68C1102.61 861.205 1101.84 858.432 1101.84 855.36V814.4C1101.84 811.328 1102.61 808.555 1104.14 806.08C1105.68 803.605 1107.69 801.6 1110.16 800.064C1112.63 798.528 1115.41 797.76 1118.48 797.76H1160.72C1163.79 797.76 1166.57 798.528 1169.04 800.064C1171.6 801.515 1173.61 803.52 1175.06 806.08C1176.59 808.64 1177.36 811.413 1177.36 814.4V855.36C1177.36 858.432 1176.59 861.205 1175.06 863.68C1173.61 866.155 1171.6 868.16 1169.04 869.696C1166.57 871.232 1163.79 872 1160.72 872H1118.48ZM1118.86 858.176H1160.34C1161.19 858.176 1161.91 857.877 1162.51 857.28C1163.11 856.597 1163.41 855.829 1163.41 854.976V814.784C1163.41 813.931 1163.11 813.205 1162.51 812.608C1161.91 811.925 1161.19 811.584 1160.34 811.584H1118.86C1118.01 811.584 1117.24 811.925 1116.56 812.608C1115.96 813.205 1115.66 813.931 1115.66 814.784V854.976C1115.66 855.829 1115.96 856.597 1116.56 857.28C1117.24 857.877 1118.01 858.176 1118.86 858.176Z" fill="#2E3651"/>
<path d="M171.646 986V916.88H228.19C230.494 916.88 232.606 917.456 234.526 918.608C236.446 919.696 237.95 921.2 239.038 923.12C240.19 924.976 240.766 927.056 240.766 929.36V973.52C240.766 975.824 240.19 977.936 239.038 979.856C237.95 981.712 236.446 983.216 234.526 984.368C232.606 985.456 230.494 986 228.19 986H171.646ZM184.318 975.632H227.998C228.638 975.632 229.182 975.408 229.63 974.96C230.078 974.448 230.302 973.872 230.302 973.232V929.648C230.302 929.008 230.078 928.464 229.63 928.016C229.182 927.504 228.638 927.248 227.998 927.248H184.318C183.678 927.248 183.134 927.504 182.686 928.016C182.238 928.464 182.014 929.008 182.014 929.648V973.232C182.014 973.872 182.238 974.448 182.686 974.96C183.134 975.408 183.678 975.632 184.318 975.632ZM250.757 986V930.32H261.125V986H250.757ZM250.757 922.448V912.08H261.125V922.448H250.757ZM280.212 1007.98V997.52H314.292C314.932 997.52 315.476 997.264 315.924 996.752C316.436 996.304 316.692 995.76 316.692 995.12V986H282.9C280.66 986 278.58 985.456 276.66 984.368C274.74 983.216 273.204 981.68 272.052 979.76C270.964 977.84 270.42 975.76 270.42 973.52V942.8C270.42 940.496 270.996 938.416 272.148 936.56C273.3 934.704 274.804 933.2 276.66 932.048C278.58 930.896 280.66 930.32 282.9 930.32H314.58C316.884 930.32 318.964 930.896 320.82 932.048C322.74 933.2 324.244 934.704 325.332 936.56C326.484 938.416 327.06 940.496 327.06 942.8V995.504C327.06 997.808 326.484 999.888 325.332 1001.74C324.244 1003.66 322.74 1005.17 320.82 1006.26C318.964 1007.41 316.884 1007.98 314.58 1007.98H280.212ZM283.188 975.632H314.292C314.932 975.632 315.476 975.408 315.924 974.96C316.436 974.448 316.692 973.872 316.692 973.232V943.088C316.692 942.448 316.436 941.904 315.924 941.456C315.476 940.944 314.932 940.688 314.292 940.688H283.188C282.548 940.688 281.972 940.944 281.46 941.456C281.012 941.904 280.788 942.448 280.788 943.088V973.232C280.788 973.872 281.012 974.448 281.46 974.96C281.972 975.408 282.548 975.632 283.188 975.632ZM337.007 986V930.32H347.375V986H337.007ZM337.007 922.448V912.08H347.375V922.448H337.007ZM370.958 986C368.654 986 366.542 985.424 364.622 984.272C362.766 983.12 361.262 981.616 360.11 979.76C359.022 977.904 358.478 975.824 358.478 973.52V912.752H368.846V930.32H391.694V940.688H368.846V973.232C368.846 973.872 369.07 974.448 369.518 974.96C370.03 975.408 370.606 975.632 371.246 975.632H391.694V986H370.958ZM412.675 986C410.371 986 408.259 985.424 406.339 984.272C404.483 983.12 402.979 981.616 401.827 979.76C400.739 977.904 400.195 975.824 400.195 973.52V952.976H446.371V943.088C446.371 942.448 446.147 941.904 445.699 941.456C445.251 940.944 444.707 940.688 444.067 940.688H400.195V930.32H444.355C446.659 930.32 448.739 930.896 450.595 932.048C452.515 933.136 454.019 934.64 455.107 936.56C456.259 938.48 456.835 940.56 456.835 942.8V986H412.675ZM412.963 975.632H446.371V962.672H410.563V973.232C410.563 973.872 410.787 974.448 411.235 974.96C411.747 975.408 412.323 975.632 412.963 975.632ZM477.831 986C475.527 986 473.447 985.424 471.591 984.272C469.735 983.12 468.231 981.616 467.079 979.76C465.927 977.904 465.351 975.824 465.351 973.52V912.08H475.719V973.232C475.719 973.872 475.943 974.448 476.391 974.96C476.903 975.408 477.479 975.632 478.119 975.632H488.199V986H477.831ZM535.956 986C533.716 986 531.636 985.456 529.716 984.368C527.796 983.216 526.26 981.712 525.108 979.856C524.02 977.936 523.476 975.824 523.476 973.52V969.488H533.844V973.232C533.844 973.872 534.068 974.448 534.516 974.96C535.028 975.408 535.604 975.632 536.244 975.632H579.828C580.468 975.632 581.012 975.408 581.46 974.96C581.908 974.448 582.132 973.872 582.132 973.232V959.024C582.132 958.32 581.908 957.744 581.46 957.296C581.012 956.848 580.468 956.624 579.828 956.624H535.956C533.716 956.624 531.636 956.08 529.716 954.992C527.796 953.84 526.26 952.336 525.108 950.48C524.02 948.56 523.476 946.448 523.476 944.144V929.36C523.476 927.056 524.02 924.976 525.108 923.12C526.26 921.2 527.796 919.696 529.716 918.608C531.636 917.456 533.716 916.88 535.956 916.88H580.116C582.356 916.88 584.436 917.456 586.356 918.608C588.276 919.696 589.78 921.2 590.868 923.12C592.02 924.976 592.596 927.056 592.596 929.36V933.392H582.132V929.648C582.132 929.008 581.908 928.464 581.46 928.016C581.012 927.504 580.468 927.248 579.828 927.248H536.244C535.604 927.248 535.028 927.504 534.516 928.016C534.068 928.464 533.844 929.008 533.844 929.648V943.856C533.844 944.56 534.068 945.136 534.516 945.584C535.028 946.032 535.604 946.256 536.244 946.256H580.116C582.356 946.256 584.436 946.832 586.356 947.984C588.276 949.072 589.78 950.576 590.868 952.496C592.02 954.352 592.596 956.432 592.596 958.736V973.52C592.596 975.824 592.02 977.936 590.868 979.856C589.78 981.712 588.276 983.216 586.356 984.368C584.436 985.456 582.356 986 580.116 986H535.956ZM614.985 986C612.681 986 610.601 985.424 608.745 984.272C606.889 983.12 605.385 981.616 604.233 979.76C603.081 977.904 602.505 975.824 602.505 973.52V942.8C602.505 940.496 603.081 938.416 604.233 936.56C605.385 934.704 606.889 933.2 608.745 932.048C610.601 930.896 612.681 930.32 614.985 930.32H646.665C648.969 930.32 651.049 930.896 652.905 932.048C654.825 933.136 656.329 934.64 657.417 936.56C658.569 938.48 659.145 940.56 659.145 942.8V973.52C659.145 975.824 658.569 977.904 657.417 979.76C656.329 981.616 654.825 983.12 652.905 984.272C651.049 985.424 648.969 986 646.665 986H614.985ZM615.273 975.632H646.377C647.017 975.632 647.561 975.408 648.009 974.96C648.457 974.448 648.681 973.872 648.681 973.232V943.088C648.681 942.448 648.457 941.904 648.009 941.456C647.561 940.944 647.017 940.688 646.377 940.688H615.273C614.633 940.688 614.057 940.944 613.545 941.456C613.097 941.904 612.873 942.448 612.873 943.088V973.232C612.873 973.872 613.097 974.448 613.545 974.96C614.057 975.408 614.633 975.632 615.273 975.632ZM679.393 986C677.089 986 675.009 985.424 673.153 984.272C671.297 983.12 669.793 981.616 668.641 979.76C667.489 977.904 666.913 975.824 666.913 973.52V912.08H677.281V973.232C677.281 973.872 677.505 974.448 677.953 974.96C678.465 975.408 679.041 975.632 679.681 975.632H689.761V986H679.393ZM710.146 986C707.842 986 705.73 985.424 703.81 984.272C701.954 983.12 700.45 981.616 699.298 979.76C698.21 977.904 697.666 975.824 697.666 973.52V930.32H708.034V973.232C708.034 973.872 708.258 974.448 708.706 974.96C709.218 975.408 709.794 975.632 710.434 975.632H741.538C742.178 975.632 742.722 975.408 743.17 974.96C743.682 974.448 743.938 973.872 743.938 973.232V930.32H754.306V973.52C754.306 975.824 753.73 977.904 752.578 979.76C751.49 981.616 749.986 983.12 748.066 984.272C746.21 985.424 744.13 986 741.826 986H710.146ZM775.114 986C772.81 986 770.698 985.424 768.778 984.272C766.922 983.12 765.418 981.616 764.266 979.76C763.178 977.904 762.634 975.824 762.634 973.52V912.752H773.002V930.32H795.85V940.688H773.002V973.232C773.002 973.872 773.226 974.448 773.674 974.96C774.186 975.408 774.762 975.632 775.402 975.632H795.85V986H775.114ZM803.601 986V930.32H813.969V986H803.601ZM803.601 922.448V912.08H813.969V922.448H803.601ZM836.704 986C834.4 986 832.32 985.424 830.464 984.272C828.608 983.12 827.104 981.616 825.952 979.76C824.8 977.904 824.224 975.824 824.224 973.52V942.8C824.224 940.496 824.8 938.416 825.952 936.56C827.104 934.704 828.608 933.2 830.464 932.048C832.32 930.896 834.4 930.32 836.704 930.32H868.384C870.688 930.32 872.768 930.896 874.624 932.048C876.544 933.136 878.048 934.64 879.136 936.56C880.288 938.48 880.864 940.56 880.864 942.8V973.52C880.864 975.824 880.288 977.904 879.136 979.76C878.048 981.616 876.544 983.12 874.624 984.272C872.768 985.424 870.688 986 868.384 986H836.704ZM836.992 975.632H868.096C868.736 975.632 869.28 975.408 869.728 974.96C870.176 974.448 870.4 973.872 870.4 973.232V943.088C870.4 942.448 870.176 941.904 869.728 941.456C869.28 940.944 868.736 940.688 868.096 940.688H836.992C836.352 940.688 835.776 940.944 835.264 941.456C834.816 941.904 834.592 942.448 834.592 943.088V973.232C834.592 973.872 834.816 974.448 835.264 974.96C835.776 975.408 836.352 975.632 836.992 975.632ZM889.105 986V930.32H933.265C935.569 930.32 937.649 930.896 939.505 932.048C941.425 933.2 942.929 934.704 944.017 936.56C945.169 938.416 945.745 940.496 945.745 942.8V986H935.377V943.088C935.377 942.448 935.121 941.904 934.609 941.456C934.161 940.944 933.617 940.688 932.977 940.688H901.873C901.233 940.688 900.657 940.944 900.145 941.456C899.697 941.904 899.473 942.448 899.473 943.088V986H889.105ZM967.197 986C964.893 986 962.813 985.424 960.957 984.272C959.101 983.12 957.597 981.616 956.445 979.76C955.293 977.904 954.717 975.824 954.717 973.52V972.08H965.085V973.232C965.085 973.872 965.309 974.448 965.757 974.96C966.269 975.408 966.845 975.632 967.485 975.632H998.589C999.229 975.632 999.773 975.408 1000.22 974.96C1000.67 974.448 1000.89 973.872 1000.89 973.232V965.744C1000.89 965.104 1000.67 964.56 1000.22 964.112C999.773 963.6 999.229 963.344 998.589 963.344H967.197C964.893 963.344 962.813 962.8 960.957 961.712C959.101 960.56 957.597 959.056 956.445 957.2C955.293 955.28 954.717 953.168 954.717 950.864V942.8C954.717 940.496 955.293 938.416 956.445 936.56C957.597 934.704 959.101 933.2 960.957 932.048C962.813 930.896 964.893 930.32 967.197 930.32H998.877C1001.18 930.32 1003.26 930.896 1005.12 932.048C1007.04 933.2 1008.54 934.704 1009.63 936.56C1010.78 938.416 1011.36 940.496 1011.36 942.8V944.24H1000.89V943.088C1000.89 942.448 1000.67 941.904 1000.22 941.456C999.773 940.944 999.229 940.688 998.589 940.688H967.485C966.845 940.688 966.269 940.944 965.757 941.456C965.309 941.904 965.085 942.448 965.085 943.088V950.576C965.085 951.216 965.309 951.792 965.757 952.304C966.269 952.752 966.845 952.976 967.485 952.976H998.877C1001.18 952.976 1003.26 953.552 1005.12 954.704C1007.04 955.792 1008.54 957.296 1009.63 959.216C1010.78 961.072 1011.36 963.152 1011.36 965.456V973.52C1011.36 975.824 1010.78 977.904 1009.63 979.76C1008.54 981.616 1007.04 983.12 1005.12 984.272C1003.26 985.424 1001.18 986 998.877 986H967.197Z" fill="#2E3651"/>
</svg>
