<svg width="850" height="1009" viewBox="0 0 850 1009" fill="none" xmlns="http://www.w3.org/2000/svg">
<rect x="21.2438" y="108.188" width="127.366" height="550.316" fill="#2D2C6F" fill-opacity="0.71"/>
<rect x="702.276" y="108.188" width="129.048" height="550.316" fill="#403AA5"/>
<rect x="361.76" y="108.188" width="129.048" height="550.316" fill="#3B31AD" fill-opacity="0.44"/>
<rect x="191.502" y="108.188" width="129.048" height="550.316" fill="#5F5E8A" fill-opacity="0.71"/>
<rect x="532.018" y="108.188" width="129.048" height="550.316" fill="#6C67BD"/>
<path d="M426 429L75.2597 107.25L776.74 107.25L426 429Z" fill="white"/>
<path d="M425.271 238.935L306.391 103.984L544.152 103.984L425.271 238.935Z" fill="#2D2C6F" fill-opacity="0.71"/>
<line x1="118.006" y1="678.533" x2="828.338" y2="98.0882" stroke="white" stroke-width="63.1938"/>
<path d="M273.808 872C270.736 872 267.92 871.275 265.36 869.824C262.885 868.288 260.88 866.283 259.344 863.808C257.893 861.248 257.168 858.432 257.168 855.36V796.48C257.168 793.408 257.893 790.635 259.344 788.16C260.88 785.6 262.885 783.595 265.36 782.144C267.92 780.608 270.736 779.84 273.808 779.84H349.072V793.664H275.728C274.362 793.664 273.21 794.133 272.272 795.072C271.418 795.925 270.992 797.035 270.992 798.4V853.44C270.992 854.805 271.418 855.957 272.272 856.896C273.21 857.749 274.362 858.176 275.728 858.176H349.072V872H273.808ZM362.802 872V779.84H434.482C437.468 779.84 440.242 780.608 442.802 782.144C445.362 783.595 447.367 785.6 448.818 788.16C450.354 790.635 451.122 793.408 451.122 796.48V815.296C451.122 816.405 450.994 817.515 450.738 818.624C450.567 819.733 450.226 820.757 449.714 821.696C451.42 824.085 452.7 826.347 453.554 828.48C454.492 830.528 454.962 832.619 454.962 834.752V855.36C454.962 858.432 454.194 861.248 452.658 863.808C451.207 866.283 449.202 868.288 446.642 869.824C444.082 871.275 441.266 872 438.194 872H362.802ZM379.826 858.176H437.938C438.791 858.176 439.516 857.877 440.114 857.28C440.711 856.597 441.01 855.829 441.01 854.976V835.136C441.01 834.283 440.711 833.557 440.114 832.96C439.516 832.277 438.791 831.936 437.938 831.936H379.826C378.972 831.936 378.204 832.277 377.522 832.96C376.924 833.557 376.626 834.283 376.626 835.136V854.976C376.626 855.829 376.924 856.597 377.522 857.28C378.204 857.877 378.972 858.176 379.826 858.176ZM379.826 818.112H434.098C434.951 818.112 435.676 817.813 436.274 817.216C436.871 816.533 437.17 815.765 437.17 814.912V796.864C437.17 796.011 436.871 795.285 436.274 794.688C435.676 794.005 434.951 793.664 434.098 793.664H379.826C378.972 793.664 378.204 794.005 377.522 794.688C376.924 795.285 376.626 796.011 376.626 796.864V814.912C376.626 815.765 376.924 816.533 377.522 817.216C378.204 817.813 378.972 818.112 379.826 818.112ZM484.918 872C481.846 872 479.072 871.232 476.598 869.696C474.123 868.16 472.118 866.155 470.582 863.68C469.046 861.205 468.278 858.432 468.278 855.36V814.4C468.278 811.328 469.046 808.555 470.582 806.08C472.118 803.605 474.123 801.6 476.598 800.064C479.072 798.528 481.846 797.76 484.918 797.76H527.158C530.23 797.76 533.003 798.528 535.478 800.064C538.038 801.515 540.043 803.52 541.494 806.08C543.03 808.64 543.798 811.413 543.798 814.4V855.36C543.798 858.432 543.03 861.205 541.494 863.68C540.043 866.155 538.038 868.16 535.478 869.696C533.003 871.232 530.23 872 527.158 872H484.918ZM485.302 858.176H526.774C527.627 858.176 528.352 857.877 528.95 857.28C529.547 856.597 529.846 855.829 529.846 854.976V814.784C529.846 813.931 529.547 813.205 528.95 812.608C528.352 811.925 527.627 811.584 526.774 811.584H485.302C484.448 811.584 483.68 811.925 482.998 812.608C482.4 813.205 482.102 813.931 482.102 814.784V854.976C482.102 855.829 482.4 856.597 482.998 857.28C483.68 857.877 484.448 858.176 485.302 858.176ZM571.049 872C567.977 872 565.161 871.232 562.601 869.696C560.126 868.16 558.121 866.155 556.585 863.68C555.134 861.205 554.409 858.432 554.409 855.36V774.336H568.233V797.76H598.697V811.584H568.233V854.976C568.233 855.829 568.531 856.597 569.129 857.28C569.811 857.877 570.579 858.176 571.433 858.176H598.697V872H571.049Z" fill="#2E3651"/>
<path d="M5.64564 986V916.88H62.1896C64.4936 916.88 66.6056 917.456 68.5256 918.608C70.4456 919.696 71.9496 921.2 73.0376 923.12C74.1896 924.976 74.7656 927.056 74.7656 929.36V973.52C74.7656 975.824 74.1896 977.936 73.0376 979.856C71.9496 981.712 70.4456 983.216 68.5256 984.368C66.6056 985.456 64.4936 986 62.1896 986H5.64564ZM18.3176 975.632H61.9976C62.6376 975.632 63.1816 975.408 63.6296 974.96C64.0776 974.448 64.3016 973.872 64.3016 973.232V929.648C64.3016 929.008 64.0776 928.464 63.6296 928.016C63.1816 927.504 62.6376 927.248 61.9976 927.248H18.3176C17.6776 927.248 17.1336 927.504 16.6856 928.016C16.2376 928.464 16.0136 929.008 16.0136 929.648V973.232C16.0136 973.872 16.2376 974.448 16.6856 974.96C17.1336 975.408 17.6776 975.632 18.3176 975.632ZM84.7571 986V930.32H95.1251V986H84.7571ZM84.7571 922.448V912.08H95.1251V922.448H84.7571ZM114.212 1007.98V997.52H148.292C148.932 997.52 149.476 997.264 149.924 996.752C150.436 996.304 150.692 995.76 150.692 995.12V986H116.9C114.66 986 112.58 985.456 110.66 984.368C108.74 983.216 107.204 981.68 106.052 979.76C104.964 977.84 104.42 975.76 104.42 973.52V942.8C104.42 940.496 104.996 938.416 106.148 936.56C107.3 934.704 108.804 933.2 110.66 932.048C112.58 930.896 114.66 930.32 116.9 930.32H148.58C150.884 930.32 152.964 930.896 154.82 932.048C156.74 933.2 158.244 934.704 159.332 936.56C160.484 938.416 161.06 940.496 161.06 942.8V995.504C161.06 997.808 160.484 999.888 159.332 1001.74C158.244 1003.66 156.74 1005.17 154.82 1006.26C152.964 1007.41 150.884 1007.98 148.58 1007.98H114.212ZM117.188 975.632H148.292C148.932 975.632 149.476 975.408 149.924 974.96C150.436 974.448 150.692 973.872 150.692 973.232V943.088C150.692 942.448 150.436 941.904 149.924 941.456C149.476 940.944 148.932 940.688 148.292 940.688H117.188C116.548 940.688 115.972 940.944 115.46 941.456C115.012 941.904 114.788 942.448 114.788 943.088V973.232C114.788 973.872 115.012 974.448 115.46 974.96C115.972 975.408 116.548 975.632 117.188 975.632ZM171.007 986V930.32H181.375V986H171.007ZM171.007 922.448V912.08H181.375V922.448H171.007ZM204.958 986C202.654 986 200.542 985.424 198.622 984.272C196.766 983.12 195.262 981.616 194.11 979.76C193.022 977.904 192.478 975.824 192.478 973.52V912.752H202.846V930.32H225.694V940.688H202.846V973.232C202.846 973.872 203.07 974.448 203.518 974.96C204.03 975.408 204.606 975.632 205.246 975.632H225.694V986H204.958ZM246.675 986C244.371 986 242.259 985.424 240.339 984.272C238.483 983.12 236.979 981.616 235.827 979.76C234.739 977.904 234.195 975.824 234.195 973.52V952.976H280.371V943.088C280.371 942.448 280.147 941.904 279.699 941.456C279.251 940.944 278.707 940.688 278.067 940.688H234.195V930.32H278.355C280.659 930.32 282.739 930.896 284.595 932.048C286.515 933.136 288.019 934.64 289.107 936.56C290.259 938.48 290.835 940.56 290.835 942.8V986H246.675ZM246.963 975.632H280.371V962.672H244.563V973.232C244.563 973.872 244.787 974.448 245.235 974.96C245.747 975.408 246.323 975.632 246.963 975.632ZM311.831 986C309.527 986 307.447 985.424 305.591 984.272C303.735 983.12 302.231 981.616 301.079 979.76C299.927 977.904 299.351 975.824 299.351 973.52V912.08H309.719V973.232C309.719 973.872 309.943 974.448 310.391 974.96C310.903 975.408 311.479 975.632 312.119 975.632H322.199V986H311.831ZM369.956 986C367.716 986 365.636 985.456 363.716 984.368C361.796 983.216 360.26 981.712 359.108 979.856C358.02 977.936 357.476 975.824 357.476 973.52V969.488H367.844V973.232C367.844 973.872 368.068 974.448 368.516 974.96C369.028 975.408 369.604 975.632 370.244 975.632H413.828C414.468 975.632 415.012 975.408 415.46 974.96C415.908 974.448 416.132 973.872 416.132 973.232V959.024C416.132 958.32 415.908 957.744 415.46 957.296C415.012 956.848 414.468 956.624 413.828 956.624H369.956C367.716 956.624 365.636 956.08 363.716 954.992C361.796 953.84 360.26 952.336 359.108 950.48C358.02 948.56 357.476 946.448 357.476 944.144V929.36C357.476 927.056 358.02 924.976 359.108 923.12C360.26 921.2 361.796 919.696 363.716 918.608C365.636 917.456 367.716 916.88 369.956 916.88H414.116C416.356 916.88 418.436 917.456 420.356 918.608C422.276 919.696 423.78 921.2 424.868 923.12C426.02 924.976 426.596 927.056 426.596 929.36V933.392H416.132V929.648C416.132 929.008 415.908 928.464 415.46 928.016C415.012 927.504 414.468 927.248 413.828 927.248H370.244C369.604 927.248 369.028 927.504 368.516 928.016C368.068 928.464 367.844 929.008 367.844 929.648V943.856C367.844 944.56 368.068 945.136 368.516 945.584C369.028 946.032 369.604 946.256 370.244 946.256H414.116C416.356 946.256 418.436 946.832 420.356 947.984C422.276 949.072 423.78 950.576 424.868 952.496C426.02 954.352 426.596 956.432 426.596 958.736V973.52C426.596 975.824 426.02 977.936 424.868 979.856C423.78 981.712 422.276 983.216 420.356 984.368C418.436 985.456 416.356 986 414.116 986H369.956ZM448.985 986C446.681 986 444.601 985.424 442.745 984.272C440.889 983.12 439.385 981.616 438.233 979.76C437.081 977.904 436.505 975.824 436.505 973.52V942.8C436.505 940.496 437.081 938.416 438.233 936.56C439.385 934.704 440.889 933.2 442.745 932.048C444.601 930.896 446.681 930.32 448.985 930.32H480.665C482.969 930.32 485.049 930.896 486.905 932.048C488.825 933.136 490.329 934.64 491.417 936.56C492.569 938.48 493.145 940.56 493.145 942.8V973.52C493.145 975.824 492.569 977.904 491.417 979.76C490.329 981.616 488.825 983.12 486.905 984.272C485.049 985.424 482.969 986 480.665 986H448.985ZM449.273 975.632H480.377C481.017 975.632 481.561 975.408 482.009 974.96C482.457 974.448 482.681 973.872 482.681 973.232V943.088C482.681 942.448 482.457 941.904 482.009 941.456C481.561 940.944 481.017 940.688 480.377 940.688H449.273C448.633 940.688 448.057 940.944 447.545 941.456C447.097 941.904 446.873 942.448 446.873 943.088V973.232C446.873 973.872 447.097 974.448 447.545 974.96C448.057 975.408 448.633 975.632 449.273 975.632ZM513.393 986C511.089 986 509.009 985.424 507.153 984.272C505.297 983.12 503.793 981.616 502.641 979.76C501.489 977.904 500.913 975.824 500.913 973.52V912.08H511.281V973.232C511.281 973.872 511.505 974.448 511.953 974.96C512.465 975.408 513.041 975.632 513.681 975.632H523.761V986H513.393ZM544.146 986C541.842 986 539.73 985.424 537.81 984.272C535.954 983.12 534.45 981.616 533.298 979.76C532.21 977.904 531.666 975.824 531.666 973.52V930.32H542.034V973.232C542.034 973.872 542.258 974.448 542.706 974.96C543.218 975.408 543.794 975.632 544.434 975.632H575.538C576.178 975.632 576.722 975.408 577.17 974.96C577.682 974.448 577.938 973.872 577.938 973.232V930.32H588.306V973.52C588.306 975.824 587.73 977.904 586.578 979.76C585.49 981.616 583.986 983.12 582.066 984.272C580.21 985.424 578.13 986 575.826 986H544.146ZM609.114 986C606.81 986 604.698 985.424 602.778 984.272C600.922 983.12 599.418 981.616 598.266 979.76C597.178 977.904 596.634 975.824 596.634 973.52V912.752H607.002V930.32H629.85V940.688H607.002V973.232C607.002 973.872 607.226 974.448 607.674 974.96C608.186 975.408 608.762 975.632 609.402 975.632H629.85V986H609.114ZM637.601 986V930.32H647.969V986H637.601ZM637.601 922.448V912.08H647.969V922.448H637.601ZM670.704 986C668.4 986 666.32 985.424 664.464 984.272C662.608 983.12 661.104 981.616 659.952 979.76C658.8 977.904 658.224 975.824 658.224 973.52V942.8C658.224 940.496 658.8 938.416 659.952 936.56C661.104 934.704 662.608 933.2 664.464 932.048C666.32 930.896 668.4 930.32 670.704 930.32H702.384C704.688 930.32 706.768 930.896 708.624 932.048C710.544 933.136 712.048 934.64 713.136 936.56C714.288 938.48 714.864 940.56 714.864 942.8V973.52C714.864 975.824 714.288 977.904 713.136 979.76C712.048 981.616 710.544 983.12 708.624 984.272C706.768 985.424 704.688 986 702.384 986H670.704ZM670.992 975.632H702.096C702.736 975.632 703.28 975.408 703.728 974.96C704.176 974.448 704.4 973.872 704.4 973.232V943.088C704.4 942.448 704.176 941.904 703.728 941.456C703.28 940.944 702.736 940.688 702.096 940.688H670.992C670.352 940.688 669.776 940.944 669.264 941.456C668.816 941.904 668.592 942.448 668.592 943.088V973.232C668.592 973.872 668.816 974.448 669.264 974.96C669.776 975.408 670.352 975.632 670.992 975.632ZM723.105 986V930.32H767.265C769.569 930.32 771.649 930.896 773.505 932.048C775.425 933.2 776.929 934.704 778.017 936.56C779.169 938.416 779.745 940.496 779.745 942.8V986H769.377V943.088C769.377 942.448 769.121 941.904 768.609 941.456C768.161 940.944 767.617 940.688 766.977 940.688H735.873C735.233 940.688 734.657 940.944 734.145 941.456C733.697 941.904 733.473 942.448 733.473 943.088V986H723.105ZM801.197 986C798.893 986 796.813 985.424 794.957 984.272C793.101 983.12 791.597 981.616 790.445 979.76C789.293 977.904 788.717 975.824 788.717 973.52V972.08H799.085V973.232C799.085 973.872 799.309 974.448 799.757 974.96C800.269 975.408 800.845 975.632 801.485 975.632H832.589C833.229 975.632 833.773 975.408 834.221 974.96C834.669 974.448 834.893 973.872 834.893 973.232V965.744C834.893 965.104 834.669 964.56 834.221 964.112C833.773 963.6 833.229 963.344 832.589 963.344H801.197C798.893 963.344 796.813 962.8 794.957 961.712C793.101 960.56 791.597 959.056 790.445 957.2C789.293 955.28 788.717 953.168 788.717 950.864V942.8C788.717 940.496 789.293 938.416 790.445 936.56C791.597 934.704 793.101 933.2 794.957 932.048C796.813 930.896 798.893 930.32 801.197 930.32H832.877C835.181 930.32 837.261 930.896 839.117 932.048C841.037 933.2 842.541 934.704 843.629 936.56C844.781 938.416 845.357 940.496 845.357 942.8V944.24H834.893V943.088C834.893 942.448 834.669 941.904 834.221 941.456C833.773 940.944 833.229 940.688 832.589 940.688H801.485C800.845 940.688 800.269 940.944 799.757 941.456C799.309 941.904 799.085 942.448 799.085 943.088V950.576C799.085 951.216 799.309 951.792 799.757 952.304C800.269 952.752 800.845 952.976 801.485 952.976H832.877C835.181 952.976 837.261 953.552 839.117 954.704C841.037 955.792 842.541 957.296 843.629 959.216C844.781 961.072 845.357 963.152 845.357 965.456V973.52C845.357 975.824 844.781 977.904 843.629 979.76C842.541 981.616 841.037 983.12 839.117 984.272C837.261 985.424 835.181 986 832.877 986H801.197Z" fill="#2E3651"/>
</svg>
