<svg width="2000" height="1000" xmlns="http://www.w3.org/2000/svg"><path fill="none" d="M0 0h2000v1000H0z"/><path d="M0 166h0c42.863 7.223 85.726 14.445 125 14 39.274-.445 74.958-8.559 115-10 40.042-1.441 84.442 3.79 121 11 36.558 7.21 65.273 16.398 105 10 39.727-6.398 90.467-28.381 130-36s67.858-.872 103 7c35.142 7.872 77.101 16.87 120 21 42.899 4.13 86.737 3.392 128 6 41.263 2.608 79.952 8.563 119-1s78.456-34.642 117-45c38.544-10.358 76.223-5.993 115 9s78.65 40.616 116 37c37.35-3.616 72.174-36.469 111-42 38.826-5.531 81.654 16.26 123 18 41.346 1.74 81.208-16.57 118-19 36.792-2.43 70.512 11.02 109 17s81.744 4.49 165 3" fill="none" stroke="#d2cdfe" stroke-width="8" stroke-linecap="round"/><path d="M0 333h0c38.939 13.607 77.878 27.213 118 24 40.122-3.213 81.427-23.246 122-27 40.573-3.754 80.413 8.77 118 14s72.92 3.163 109 4c36.08.837 72.906 4.576 113-2 40.094-6.576 83.457-23.469 126-26 42.543-2.531 84.265 9.298 122 11s71.483-6.724 111-2c39.517 4.724 84.803 22.596 125 29s75.306 1.338 114-6 80.972-16.947 118-20c37.028-3.053 68.805.451 109-2 40.195-2.451 88.806-10.859 132-17s80.97-10.017 116-1 67.316 30.928 106 34c38.684 3.072 83.767-12.694 125-18 41.233-5.306 78.617-.153 156 5" fill="none" stroke="#e3e0ff" stroke-width="8" stroke-linecap="round"/><path d="M0 500h0c39.993 14.25 79.987 28.5 120 22 40.013-6.5 80.046-33.75 118-35 37.954-1.25 73.83 23.502 113 27 39.17 3.498 81.637-14.257 121-15 39.363-.743 75.621 15.527 115 12 39.379-3.527 81.878-26.852 120-35s71.868-1.118 111 8c39.132 9.118 83.65 20.325 123 23 39.35 2.675 73.534-3.183 114-1 40.466 2.183 87.215 12.406 126 11 38.785-1.406 69.606-14.442 109-24 39.394-9.558 87.36-15.636 126-11 38.64 4.636 67.956 19.988 107 29s87.816 11.684 130 4c42.184-7.684 77.78-25.722 116-33 38.22-7.278 79.063-3.794 118 1 38.937 4.794 75.969 10.897 153 17" fill="none" stroke="#d8d4ff" stroke-width="8" stroke-linecap="round"/><path d="M0 666h0c36.793 5.338 73.587 10.676 113 5s81.447-22.367 124-22c42.553.367 85.627 17.792 124 24 38.373 6.208 72.045 1.198 110 1 37.955-.198 80.193 4.415 122 6s83.183.14 120 4c36.817 3.86 69.075 13.022 107 3s81.517-39.228 124-44c42.483-4.772 83.859 14.891 123 27 39.141 12.109 76.049 16.663 115 17 38.951.337 79.945-3.543 119-15 39.055-11.457 76.17-30.49 114-24 37.83 6.49 76.377 38.501 114 42 37.623 3.499 74.322-21.516 116-22 41.678-.484 88.337 23.562 128 20 39.663-3.562 72.332-34.732 109-43 36.668-8.268 77.334 6.366 158 21" fill="none" stroke="#e4e1ff" stroke-width="8" stroke-linecap="round"/><path d="M0 833h0c44.411 3.17 88.822 6.339 126 6 37.178-.339 67.121-4.186 106 0 38.879 4.186 86.692 16.406 128 12 41.308-4.406 76.112-25.44 113-27 36.888-1.56 75.862 16.35 115 23 39.138 6.65 78.44 2.037 116-1s73.376-4.498 113-6c39.624-1.502 83.055-3.046 126-4 42.945-.954 85.404-1.317 123 2 37.596 3.317 70.33 10.314 110 5s86.274-22.939 124-25 66.575 11.441 104 21 83.426 15.175 124 19c40.574 3.825 75.72 5.86 114-2s79.69-25.616 121-27c41.31-1.384 82.517 13.605 122 17 39.483 3.395 77.242-4.802 155-13M0 999h0c45.155-3.515 90.31-7.03 126-5 35.69 2.03 61.917 9.605 101 13 39.083 3.395 91.024 2.608 132-7s70.986-28.038 107-21c36.014 7.038 78.031 39.545 118 43 39.969 3.455 77.888-22.142 118-26 40.112-3.858 82.416 14.025 122 13 39.584-1.025 76.446-20.956 113-30s72.798-7.202 114 3 87.361 28.764 127 38c39.639 9.236 72.757 9.145 110-1 37.243-10.145 78.61-30.345 118-30 39.39.345 76.803 21.236 116 26 39.197 4.764 80.176-6.6 123-17s87.491-19.839 126-13c38.509 6.839 70.86 29.954 108 35 37.14 5.046 79.07-7.977 161-21" fill="none" stroke="#d5d0ff" stroke-width="8" stroke-linecap="round"/></svg>