<svg xmlns="http://www.w3.org/2000/svg" version="1.1" xmlns:xlink="http://www.w3.org/1999/xlink" xmlns:svgjs="http://svgjs.com/svgjs" width="1440" height="560" preserveAspectRatio="none" viewBox="0 0 1440 560"><g mask="url(&quot;#SvgjsMask1317&quot;)" fill="none"><rect width="1440" height="560" x="0" y="0" fill="url(#SvgjsLinearGradient1318)"></rect><path d="M-109.08 340.18L-109.08 340.18" stroke="#132e65" stroke-width="1.5"></path><path d="M-109.08 340.18L-61.81 536.01" stroke="#132e65" stroke-width="1.5"></path><path d="M-109.08 340.18L93.56 348.81" stroke="#132e65" stroke-width="1.5"></path><path d="M-61.81 536.01L-61.81 536.01" stroke="#132e65" stroke-width="1.5"></path><path d="M-61.81 536.01L-111.51 641.44" stroke="#132e65" stroke-width="1.5"></path><path d="M-61.81 536.01L87.52 488.98" stroke="#132e65" stroke-width="1.5"></path><path d="M-61.81 536.01L106.54 663.65" stroke="#132e65" stroke-width="1.5"></path><path d="M-111.51 641.44L-111.51 641.44" stroke="#132e65" stroke-width="1.5"></path><path d="M93.56 348.81L93.56 348.81" stroke="#132e65" stroke-width="1.5"></path><path d="M93.56 348.81L87.52 488.98" stroke="#132e65" stroke-width="1.5"></path><path d="M93.56 348.81L255.35 340.59" stroke="#132e65" stroke-width="1.5"></path><path d="M93.56 348.81L187.78 496.59" stroke="#132e65" stroke-width="1.5"></path><path d="M87.52 488.98L87.52 488.98" stroke="#132e65" stroke-width="1.5"></path><path d="M87.52 488.98L187.78 496.59" stroke="#132e65" stroke-width="1.5"></path><path d="M106.54 663.65L106.54 663.65" stroke="#132e65" stroke-width="1.5"></path><path d="M106.54 663.65L215.24 676.65" stroke="#132e65" stroke-width="1.5"></path><path d="M106.54 663.65L87.52 488.98" stroke="#132e65" stroke-width="1.5"></path><path d="M106.54 663.65L187.78 496.59" stroke="#132e65" stroke-width="1.5"></path><path d="M106.54 663.65L-111.51 641.44" stroke="#132e65" stroke-width="1.5"></path><path d="M255.35 340.59L255.35 340.59" stroke="#132e65" stroke-width="1.5"></path><path d="M255.35 340.59L358.65 356.29" stroke="#132e65" stroke-width="1.5"></path><path d="M255.35 340.59L187.78 496.59" stroke="#132e65" stroke-width="1.5"></path><path d="M255.35 340.59L87.52 488.98" stroke="#132e65" stroke-width="1.5"></path><path d="M187.78 496.59L187.78 496.59" stroke="#132e65" stroke-width="1.5"></path><path d="M215.24 676.65L215.24 676.65" stroke="#132e65" stroke-width="1.5"></path><path d="M215.24 676.65L345.67 709.81" stroke="#132e65" stroke-width="1.5"></path><path d="M358.65 356.29L358.65 356.29" stroke="#132e65" stroke-width="1.5"></path><path d="M358.65 356.29L409.34 525.11" stroke="#132e65" stroke-width="1.5"></path><path d="M358.65 356.29L558.85 412.02" stroke="#132e65" stroke-width="1.5"></path><path d="M358.65 356.29L187.78 496.59" stroke="#132e65" stroke-width="1.5"></path><path d="M358.65 356.29L527.7 502.75" stroke="#132e65" stroke-width="1.5"></path><path d="M358.65 356.29L93.56 348.81" stroke="#132e65" stroke-width="1.5"></path><path d="M409.34 525.11L409.34 525.11" stroke="#132e65" stroke-width="1.5"></path><path d="M409.34 525.11L527.7 502.75" stroke="#132e65" stroke-width="1.5"></path><path d="M409.34 525.11L558.85 412.02" stroke="#132e65" stroke-width="1.5"></path><path d="M409.34 525.11L345.67 709.81" stroke="#132e65" stroke-width="1.5"></path><path d="M345.67 709.81L345.67 709.81" stroke="#132e65" stroke-width="1.5"></path><path d="M345.67 709.81L106.54 663.65" stroke="#132e65" stroke-width="1.5"></path><path d="M345.67 709.81L187.78 496.59" stroke="#132e65" stroke-width="1.5"></path><path d="M345.67 709.81L527.7 502.75" stroke="#132e65" stroke-width="1.5"></path><path d="M558.85 412.02L558.85 412.02" stroke="#132e65" stroke-width="1.5"></path><path d="M558.85 412.02L527.7 502.75" stroke="#132e65" stroke-width="1.5"></path><path d="M558.85 412.02L686.89 411.65" stroke="#132e65" stroke-width="1.5"></path><path d="M558.85 412.02L695.9 513.8" stroke="#132e65" stroke-width="1.5"></path><path d="M527.7 502.75L527.7 502.75" stroke="#132e65" stroke-width="1.5"></path><path d="M527.7 502.75L695.9 513.8" stroke="#132e65" stroke-width="1.5"></path><path d="M527.7 502.75L686.89 411.65" stroke="#132e65" stroke-width="1.5"></path><path d="M642.59 245.01L642.59 245.01" stroke="#132e65" stroke-width="1.5"></path><path d="M642.59 245.01L686.89 411.65" stroke="#132e65" stroke-width="1.5"></path><path d="M642.59 245.01L821.2 209.87" stroke="#132e65" stroke-width="1.5"></path><path d="M642.59 245.01L558.85 412.02" stroke="#132e65" stroke-width="1.5"></path><path d="M686.89 411.65L686.89 411.65" stroke="#132e65" stroke-width="1.5"></path><path d="M686.89 411.65L695.9 513.8" stroke="#132e65" stroke-width="1.5"></path><path d="M686.89 411.65L812.08 525.2" stroke="#132e65" stroke-width="1.5"></path><path d="M695.9 513.8L695.9 513.8" stroke="#132e65" stroke-width="1.5"></path><path d="M695.9 513.8L812.08 525.2" stroke="#132e65" stroke-width="1.5"></path><path d="M695.9 513.8L678.68 680.45" stroke="#132e65" stroke-width="1.5"></path><path d="M678.68 680.45L678.68 680.45" stroke="#132e65" stroke-width="1.5"></path><path d="M678.68 680.45L792.44 652.44" stroke="#132e65" stroke-width="1.5"></path><path d="M678.68 680.45L812.08 525.2" stroke="#132e65" stroke-width="1.5"></path><path d="M821.2 209.87L821.2 209.87" stroke="#132e65" stroke-width="1.5"></path><path d="M821.2 209.87L1004.08 257.12" stroke="#132e65" stroke-width="1.5"></path><path d="M821.2 209.87L686.89 411.65" stroke="#132e65" stroke-width="1.5"></path><path d="M821.2 209.87L996.67 385.62" stroke="#132e65" stroke-width="1.5"></path><path d="M821.2 209.87L812.08 525.2" stroke="#132e65" stroke-width="1.5"></path><path d="M821.2 209.87L1109.45 66.8" stroke="#132e65" stroke-width="1.5"></path><path d="M812.08 525.2L812.08 525.2" stroke="#132e65" stroke-width="1.5"></path><path d="M812.08 525.2L792.44 652.44" stroke="#132e65" stroke-width="1.5"></path><path d="M812.08 525.2L952.63 703.72" stroke="#132e65" stroke-width="1.5"></path><path d="M792.44 652.44L792.44 652.44" stroke="#132e65" stroke-width="1.5"></path><path d="M1003.74 -93.13L1003.74 -93.13" stroke="#132e65" stroke-width="1.5"></path><path d="M1003.74 -93.13L1121.8 -103.25" stroke="#132e65" stroke-width="1.5"></path><path d="M1003.74 -93.13L1109.45 66.8" stroke="#132e65" stroke-width="1.5"></path><path d="M1004.08 257.12L1004.08 257.12" stroke="#132e65" stroke-width="1.5"></path><path d="M1004.08 257.12L996.67 385.62" stroke="#132e65" stroke-width="1.5"></path><path d="M1004.08 257.12L1143.57 379.69" stroke="#132e65" stroke-width="1.5"></path><path d="M996.67 385.62L996.67 385.62" stroke="#132e65" stroke-width="1.5"></path><path d="M996.67 385.62L1143.57 379.69" stroke="#132e65" stroke-width="1.5"></path><path d="M996.67 385.62L1150.62 519.8" stroke="#132e65" stroke-width="1.5"></path><path d="M952.63 703.72L952.63 703.72" stroke="#132e65" stroke-width="1.5"></path><path d="M952.63 703.72L1104.28 692.06" stroke="#132e65" stroke-width="1.5"></path><path d="M952.63 703.72L792.44 652.44" stroke="#132e65" stroke-width="1.5"></path><path d="M1121.8 -103.25L1121.8 -103.25" stroke="#132e65" stroke-width="1.5"></path><path d="M1121.8 -103.25L1270.76 -82.31" stroke="#132e65" stroke-width="1.5"></path><path d="M1121.8 -103.25L1109.45 66.8" stroke="#132e65" stroke-width="1.5"></path><path d="M1121.8 -103.25L1293.89 54.94" stroke="#132e65" stroke-width="1.5"></path><path d="M1109.45 66.8L1109.45 66.8" stroke="#132e65" stroke-width="1.5"></path><path d="M1109.45 66.8L1293.89 54.94" stroke="#132e65" stroke-width="1.5"></path><path d="M1109.45 66.8L1267.41 213.26" stroke="#132e65" stroke-width="1.5"></path><path d="M1109.45 66.8L1004.08 257.12" stroke="#132e65" stroke-width="1.5"></path><path d="M1143.57 379.69L1143.57 379.69" stroke="#132e65" stroke-width="1.5"></path><path d="M1143.57 379.69L1260.35 347.27" stroke="#132e65" stroke-width="1.5"></path><path d="M1143.57 379.69L1150.62 519.8" stroke="#132e65" stroke-width="1.5"></path><path d="M1143.57 379.69L1247.87 493.34" stroke="#132e65" stroke-width="1.5"></path><path d="M1150.62 519.8L1150.62 519.8" stroke="#132e65" stroke-width="1.5"></path><path d="M1150.62 519.8L1247.87 493.34" stroke="#132e65" stroke-width="1.5"></path><path d="M1104.28 692.06L1104.28 692.06" stroke="#132e65" stroke-width="1.5"></path><path d="M1104.28 692.06L1255.26 674.14" stroke="#132e65" stroke-width="1.5"></path><path d="M1104.28 692.06L1150.62 519.8" stroke="#132e65" stroke-width="1.5"></path><path d="M1104.28 692.06L1247.87 493.34" stroke="#132e65" stroke-width="1.5"></path><path d="M1104.28 692.06L792.44 652.44" stroke="#132e65" stroke-width="1.5"></path><path d="M1104.28 692.06L1143.57 379.69" stroke="#132e65" stroke-width="1.5"></path><path d="M1270.76 -82.31L1270.76 -82.31" stroke="#132e65" stroke-width="1.5"></path><path d="M1270.76 -82.31L1293.89 54.94" stroke="#132e65" stroke-width="1.5"></path><path d="M1293.89 54.94L1293.89 54.94" stroke="#132e65" stroke-width="1.5"></path><path d="M1293.89 54.94L1440.35 67.91" stroke="#132e65" stroke-width="1.5"></path><path d="M1293.89 54.94L1267.41 213.26" stroke="#132e65" stroke-width="1.5"></path><path d="M1293.89 54.94L1438.23 -48.29" stroke="#132e65" stroke-width="1.5"></path><path d="M1267.41 213.26L1267.41 213.26" stroke="#132e65" stroke-width="1.5"></path><path d="M1267.41 213.26L1260.35 347.27" stroke="#132e65" stroke-width="1.5"></path><path d="M1267.41 213.26L1408.57 196.99" stroke="#132e65" stroke-width="1.5"></path><path d="M1267.41 213.26L1143.57 379.69" stroke="#132e65" stroke-width="1.5"></path><path d="M1267.41 213.26L1440.35 67.91" stroke="#132e65" stroke-width="1.5"></path><path d="M1260.35 347.27L1260.35 347.27" stroke="#132e65" stroke-width="1.5"></path><path d="M1260.35 347.27L1247.87 493.34" stroke="#132e65" stroke-width="1.5"></path><path d="M1260.35 347.27L1150.62 519.8" stroke="#132e65" stroke-width="1.5"></path><path d="M1260.35 347.27L1408.57 196.99" stroke="#132e65" stroke-width="1.5"></path><path d="M1247.87 493.34L1247.87 493.34" stroke="#132e65" stroke-width="1.5"></path><path d="M1255.26 674.14L1255.26 674.14" stroke="#132e65" stroke-width="1.5"></path><path d="M1255.26 674.14L1247.87 493.34" stroke="#132e65" stroke-width="1.5"></path><path d="M1255.26 674.14L1150.62 519.8" stroke="#132e65" stroke-width="1.5"></path><path d="M1255.26 674.14L1460.41 682.25" stroke="#132e65" stroke-width="1.5"></path><path d="M1255.26 674.14L1441.98 533.39" stroke="#132e65" stroke-width="1.5"></path><path d="M1438.23 -48.29L1438.23 -48.29" stroke="#132e65" stroke-width="1.5"></path><path d="M1438.23 -48.29L1440.35 67.91" stroke="#132e65" stroke-width="1.5"></path><path d="M1438.23 -48.29L1604.66 -54.46" stroke="#132e65" stroke-width="1.5"></path><path d="M1438.23 -48.29L1270.76 -82.31" stroke="#132e65" stroke-width="1.5"></path><path d="M1438.23 -48.29L1597.2 84.86" stroke="#132e65" stroke-width="1.5"></path><path d="M1438.23 -48.29L1408.57 196.99" stroke="#132e65" stroke-width="1.5"></path><path d="M1440.35 67.91L1440.35 67.91" stroke="#132e65" stroke-width="1.5"></path><path d="M1440.35 67.91L1408.57 196.99" stroke="#132e65" stroke-width="1.5"></path><path d="M1408.57 196.99L1408.57 196.99" stroke="#132e65" stroke-width="1.5"></path><path d="M1408.57 196.99L1548.73 199.99" stroke="#132e65" stroke-width="1.5"></path><path d="M1408.57 196.99L1293.89 54.94" stroke="#132e65" stroke-width="1.5"></path><path d="M1441.98 533.39L1441.98 533.39" stroke="#132e65" stroke-width="1.5"></path><path d="M1441.98 533.39L1460.41 682.25" stroke="#132e65" stroke-width="1.5"></path><path d="M1441.98 533.39L1596.26 512.48" stroke="#132e65" stroke-width="1.5"></path><path d="M1460.41 682.25L1460.41 682.25" stroke="#132e65" stroke-width="1.5"></path><path d="M1460.41 682.25L1541.86 702.31" stroke="#132e65" stroke-width="1.5"></path><path d="M1604.66 -54.46L1604.66 -54.46" stroke="#132e65" stroke-width="1.5"></path><path d="M1604.66 -54.46L1597.2 84.86" stroke="#132e65" stroke-width="1.5"></path><path d="M1604.66 -54.46L1440.35 67.91" stroke="#132e65" stroke-width="1.5"></path><path d="M1604.66 -54.46L1548.73 199.99" stroke="#132e65" stroke-width="1.5"></path><path d="M1604.66 -54.46L1408.57 196.99" stroke="#132e65" stroke-width="1.5"></path><path d="M1604.66 -54.46L1293.89 54.94" stroke="#132e65" stroke-width="1.5"></path><path d="M1597.2 84.86L1597.2 84.86" stroke="#132e65" stroke-width="1.5"></path><path d="M1597.2 84.86L1548.73 199.99" stroke="#132e65" stroke-width="1.5"></path><path d="M1597.2 84.86L1440.35 67.91" stroke="#132e65" stroke-width="1.5"></path><path d="M1597.2 84.86L1408.57 196.99" stroke="#132e65" stroke-width="1.5"></path><path d="M1548.73 199.99L1548.73 199.99" stroke="#132e65" stroke-width="1.5"></path><path d="M1607.41 345.32L1607.41 345.32" stroke="#132e65" stroke-width="1.5"></path><path d="M1607.41 345.32L1548.73 199.99" stroke="#132e65" stroke-width="1.5"></path><path d="M1607.41 345.32L1596.26 512.48" stroke="#132e65" stroke-width="1.5"></path><path d="M1607.41 345.32L1408.57 196.99" stroke="#132e65" stroke-width="1.5"></path><path d="M1607.41 345.32L1441.98 533.39" stroke="#132e65" stroke-width="1.5"></path><path d="M1596.26 512.48L1596.26 512.48" stroke="#132e65" stroke-width="1.5"></path><path d="M1596.26 512.48L1541.86 702.31" stroke="#132e65" stroke-width="1.5"></path><path d="M1596.26 512.48L1460.41 682.25" stroke="#132e65" stroke-width="1.5"></path><path d="M1541.86 702.31L1541.86 702.31" stroke="#132e65" stroke-width="1.5"></path><path d="M1541.86 702.31L1441.98 533.39" stroke="#132e65" stroke-width="1.5"></path><path d="M1541.86 702.31L1255.26 674.14" stroke="#132e65" stroke-width="1.5"></path><path d="M1541.86 702.31L1247.87 493.34" stroke="#132e65" stroke-width="1.5"></path><path d="M1541.86 702.31L1607.41 345.32" stroke="#132e65" stroke-width="1.5"></path><circle r="5" cx="-109.08" cy="340.18" fill="#132e65"></circle><circle r="5" cx="-61.81" cy="536.01" fill="#132e65"></circle><circle r="5" cx="-111.51" cy="641.44" fill="#132e65"></circle><circle r="5" cx="93.56" cy="348.81" fill="#132e65"></circle><circle r="5" cx="87.52" cy="488.98" fill="#132e65"></circle><circle r="5" cx="106.54" cy="663.65" fill="#132e65"></circle><circle r="5" cx="255.35" cy="340.59" fill="#132e65"></circle><circle r="5" cx="187.78" cy="496.59" fill="#132e65"></circle><circle r="5" cx="215.24" cy="676.65" fill="#132e65"></circle><circle r="5" cx="358.65" cy="356.29" fill="#132e65"></circle><circle r="5" cx="409.34" cy="525.11" fill="#132e65"></circle><circle r="5" cx="345.67" cy="709.81" fill="#132e65"></circle><circle r="5" cx="558.85" cy="412.02" fill="#132e65"></circle><circle r="5" cx="527.7" cy="502.75" fill="#132e65"></circle><circle r="5" cx="642.59" cy="245.01" fill="#132e65"></circle><circle r="5" cx="686.89" cy="411.65" fill="#132e65"></circle><circle r="5" cx="695.9" cy="513.8" fill="#132e65"></circle><circle r="5" cx="678.68" cy="680.45" fill="#132e65"></circle><circle r="5" cx="821.2" cy="209.87" fill="#132e65"></circle><circle r="5" cx="812.08" cy="525.2" fill="#132e65"></circle><circle r="5" cx="792.44" cy="652.44" fill="#132e65"></circle><circle r="5" cx="1003.74" cy="-93.13" fill="#132e65"></circle><circle r="5" cx="1004.08" cy="257.12" fill="#132e65"></circle><circle r="5" cx="996.67" cy="385.62" fill="#132e65"></circle><circle r="5" cx="952.63" cy="703.72" fill="#132e65"></circle><circle r="5" cx="1121.8" cy="-103.25" fill="#132e65"></circle><circle r="5" cx="1109.45" cy="66.8" fill="#132e65"></circle><circle r="5" cx="1143.57" cy="379.69" fill="#132e65"></circle><circle r="5" cx="1150.62" cy="519.8" fill="#132e65"></circle><circle r="5" cx="1104.28" cy="692.06" fill="#132e65"></circle><circle r="5" cx="1270.76" cy="-82.31" fill="#132e65"></circle><circle r="5" cx="1293.89" cy="54.94" fill="#132e65"></circle><circle r="5" cx="1267.41" cy="213.26" fill="#132e65"></circle><circle r="5" cx="1260.35" cy="347.27" fill="#132e65"></circle><circle r="5" cx="1247.87" cy="493.34" fill="#132e65"></circle><circle r="5" cx="1255.26" cy="674.14" fill="#132e65"></circle><circle r="5" cx="1438.23" cy="-48.29" fill="#132e65"></circle><circle r="5" cx="1440.35" cy="67.91" fill="#132e65"></circle><circle r="5" cx="1408.57" cy="196.99" fill="#132e65"></circle><circle r="5" cx="1441.98" cy="533.39" fill="#132e65"></circle><circle r="5" cx="1460.41" cy="682.25" fill="#132e65"></circle><circle r="5" cx="1604.66" cy="-54.46" fill="#132e65"></circle><circle r="5" cx="1597.2" cy="84.86" fill="#132e65"></circle><circle r="5" cx="1548.73" cy="199.99" fill="#132e65"></circle><circle r="5" cx="1607.41" cy="345.32" fill="#132e65"></circle><circle r="5" cx="1596.26" cy="512.48" fill="#132e65"></circle><circle r="5" cx="1541.86" cy="702.31" fill="#132e65"></circle><path d="M-67.45 504.67L-67.45 504.67" stroke="hsl(228.5, 77.2%, 51.5%)" stroke-width="1.5"></path><path d="M-67.45 504.67L78.48 550.6" stroke="hsl(228.5, 77.2%, 51.5%)" stroke-width="1.5"></path><path d="M829.8 398.65L829.8 398.65" stroke="hsl(228.5, 77.2%, 51.5%)" stroke-width="1.5"></path><path d="M829.8 398.65L836.39 515.27" stroke="hsl(228.5, 77.2%, 51.5%)" stroke-width="1.5"></path><path d="M829.8 398.65L983.26 397.89" stroke="hsl(228.5, 77.2%, 51.5%)" stroke-width="1.5"></path><path d="M829.8 398.65L939.41 516.81" stroke="hsl(228.5, 77.2%, 51.5%)" stroke-width="1.5"></path><path d="M829.8 398.65L946.5 656.49" stroke="hsl(228.5, 77.2%, 51.5%)" stroke-width="1.5"></path><path d="M829.8 398.65L814.78 690.38" stroke="hsl(228.5, 77.2%, 51.5%)" stroke-width="1.5"></path><path d="M946.5 656.49L946.5 656.49" stroke="hsl(228.5, 77.2%, 51.5%)" stroke-width="1.5"></path><path d="M946.5 656.49L814.78 690.38" stroke="hsl(228.5, 77.2%, 51.5%)" stroke-width="1.5"></path><path d="M946.5 656.49L939.41 516.81" stroke="hsl(228.5, 77.2%, 51.5%)" stroke-width="1.5"></path><path d="M946.5 656.49L1121.35 641.08" stroke="hsl(228.5, 77.2%, 51.5%)" stroke-width="1.5"></path><path d="M946.5 656.49L836.39 515.27" stroke="hsl(228.5, 77.2%, 51.5%)" stroke-width="1.5"></path><path d="M1586.47 -95.9L1586.47 -95.9" stroke="hsl(228.5, 77.2%, 51.5%)" stroke-width="1.5"></path><path d="M1586.47 -95.9L1388.02 -85.83" stroke="hsl(228.5, 77.2%, 51.5%)" stroke-width="1.5"></path><path d="M1586.47 -95.9L1558.02 104.01" stroke="hsl(228.5, 77.2%, 51.5%)" stroke-width="1.5"></path><path d="M1586.47 -95.9L1453.3 60.4" stroke="hsl(228.5, 77.2%, 51.5%)" stroke-width="1.5"></path><path d="M1586.47 -95.9L1279.5 -103.19" stroke="hsl(228.5, 77.2%, 51.5%)" stroke-width="1.5"></path><path d="M1586.47 -95.9L1607.05 221.6" stroke="hsl(228.5, 77.2%, 51.5%)" stroke-width="1.5"></path><path d="M1586.47 -95.9L1299.79 92.26" stroke="hsl(228.5, 77.2%, 51.5%)" stroke-width="1.5"></path><path d="M-46.35 684.62L-46.35 684.62" stroke="hsl(228.5, 77.2%, 51.5%)" stroke-width="1.5"></path><path d="M-46.35 684.62L88.44 704.24" stroke="hsl(228.5, 77.2%, 51.5%)" stroke-width="1.5"></path><path d="M-46.35 684.62L-67.45 504.67" stroke="hsl(228.5, 77.2%, 51.5%)" stroke-width="1.5"></path><path d="M78.48 550.6L78.48 550.6" stroke="hsl(228.5, 77.2%, 51.5%)" stroke-width="1.5"></path><path d="M78.48 550.6L88.44 704.24" stroke="hsl(228.5, 77.2%, 51.5%)" stroke-width="1.5"></path><path d="M78.48 550.6L239.38 527.69" stroke="hsl(228.5, 77.2%, 51.5%)" stroke-width="1.5"></path><path d="M88.44 704.24L88.44 704.24" stroke="hsl(228.5, 77.2%, 51.5%)" stroke-width="1.5"></path><path d="M88.44 704.24L226.07 664.57" stroke="hsl(228.5, 77.2%, 51.5%)" stroke-width="1.5"></path><path d="M88.44 704.24L239.38 527.69" stroke="hsl(228.5, 77.2%, 51.5%)" stroke-width="1.5"></path><path d="M88.44 704.24L-67.45 504.67" stroke="hsl(228.5, 77.2%, 51.5%)" stroke-width="1.5"></path><path d="M239.38 527.69L239.38 527.69" stroke="hsl(228.5, 77.2%, 51.5%)" stroke-width="1.5"></path><path d="M239.38 527.69L362.6 489.46" stroke="hsl(228.5, 77.2%, 51.5%)" stroke-width="1.5"></path><path d="M239.38 527.69L226.07 664.57" stroke="hsl(228.5, 77.2%, 51.5%)" stroke-width="1.5"></path><path d="M239.38 527.69L388.9 706.89" stroke="hsl(228.5, 77.2%, 51.5%)" stroke-width="1.5"></path><path d="M239.38 527.69L-67.45 504.67" stroke="hsl(228.5, 77.2%, 51.5%)" stroke-width="1.5"></path><path d="M226.07 664.57L226.07 664.57" stroke="hsl(228.5, 77.2%, 51.5%)" stroke-width="1.5"></path><path d="M362.6 489.46L362.6 489.46" stroke="hsl(228.5, 77.2%, 51.5%)" stroke-width="1.5"></path><path d="M362.6 489.46L555.6 533.4" stroke="hsl(228.5, 77.2%, 51.5%)" stroke-width="1.5"></path><path d="M362.6 489.46L388.9 706.89" stroke="hsl(228.5, 77.2%, 51.5%)" stroke-width="1.5"></path><path d="M362.6 489.46L226.07 664.57" stroke="hsl(228.5, 77.2%, 51.5%)" stroke-width="1.5"></path><path d="M362.6 489.46L524.83 699.05" stroke="hsl(228.5, 77.2%, 51.5%)" stroke-width="1.5"></path><path d="M388.9 706.89L388.9 706.89" stroke="hsl(228.5, 77.2%, 51.5%)" stroke-width="1.5"></path><path d="M388.9 706.89L524.83 699.05" stroke="hsl(228.5, 77.2%, 51.5%)" stroke-width="1.5"></path><path d="M388.9 706.89L226.07 664.57" stroke="hsl(228.5, 77.2%, 51.5%)" stroke-width="1.5"></path><path d="M555.6 533.4L555.6 533.4" stroke="hsl(228.5, 77.2%, 51.5%)" stroke-width="1.5"></path><path d="M555.6 533.4L524.83 699.05" stroke="hsl(228.5, 77.2%, 51.5%)" stroke-width="1.5"></path><path d="M555.6 533.4L709.78 674.08" stroke="hsl(228.5, 77.2%, 51.5%)" stroke-width="1.5"></path><path d="M524.83 699.05L524.83 699.05" stroke="hsl(228.5, 77.2%, 51.5%)" stroke-width="1.5"></path><path d="M709.78 674.08L709.78 674.08" stroke="hsl(228.5, 77.2%, 51.5%)" stroke-width="1.5"></path><path d="M709.78 674.08L814.78 690.38" stroke="hsl(228.5, 77.2%, 51.5%)" stroke-width="1.5"></path><path d="M709.78 674.08L524.83 699.05" stroke="hsl(228.5, 77.2%, 51.5%)" stroke-width="1.5"></path><path d="M836.39 515.27L836.39 515.27" stroke="hsl(228.5, 77.2%, 51.5%)" stroke-width="1.5"></path><path d="M836.39 515.27L939.41 516.81" stroke="hsl(228.5, 77.2%, 51.5%)" stroke-width="1.5"></path><path d="M814.78 690.38L814.78 690.38" stroke="hsl(228.5, 77.2%, 51.5%)" stroke-width="1.5"></path><path d="M814.78 690.38L836.39 515.27" stroke="hsl(228.5, 77.2%, 51.5%)" stroke-width="1.5"></path><path d="M814.78 690.38L939.41 516.81" stroke="hsl(228.5, 77.2%, 51.5%)" stroke-width="1.5"></path><path d="M814.78 690.38L524.83 699.05" stroke="hsl(228.5, 77.2%, 51.5%)" stroke-width="1.5"></path><path d="M983.26 397.89L983.26 397.89" stroke="hsl(228.5, 77.2%, 51.5%)" stroke-width="1.5"></path><path d="M983.26 397.89L939.41 516.81" stroke="hsl(228.5, 77.2%, 51.5%)" stroke-width="1.5"></path><path d="M983.26 397.89L836.39 515.27" stroke="hsl(228.5, 77.2%, 51.5%)" stroke-width="1.5"></path><path d="M983.26 397.89L1151.34 541.03" stroke="hsl(228.5, 77.2%, 51.5%)" stroke-width="1.5"></path><path d="M983.26 397.89L1144.49 193.35" stroke="hsl(228.5, 77.2%, 51.5%)" stroke-width="1.5"></path><path d="M983.26 397.89L946.5 656.49" stroke="hsl(228.5, 77.2%, 51.5%)" stroke-width="1.5"></path><path d="M939.41 516.81L939.41 516.81" stroke="hsl(228.5, 77.2%, 51.5%)" stroke-width="1.5"></path><path d="M1144.49 193.35L1144.49 193.35" stroke="hsl(228.5, 77.2%, 51.5%)" stroke-width="1.5"></path><path d="M1144.49 193.35L1267.97 197.38" stroke="hsl(228.5, 77.2%, 51.5%)" stroke-width="1.5"></path><path d="M1144.49 193.35L1299.79 92.26" stroke="hsl(228.5, 77.2%, 51.5%)" stroke-width="1.5"></path><path d="M1144.49 193.35L1295.47 400.61" stroke="hsl(228.5, 77.2%, 51.5%)" stroke-width="1.5"></path><path d="M1144.49 193.35L1422.97 215.32" stroke="hsl(228.5, 77.2%, 51.5%)" stroke-width="1.5"></path><path d="M1144.49 193.35L1406.36 364.14" stroke="hsl(228.5, 77.2%, 51.5%)" stroke-width="1.5"></path><path d="M1151.34 541.03L1151.34 541.03" stroke="hsl(228.5, 77.2%, 51.5%)" stroke-width="1.5"></path><path d="M1151.34 541.03L1121.35 641.08" stroke="hsl(228.5, 77.2%, 51.5%)" stroke-width="1.5"></path><path d="M1151.34 541.03L1266.59 538.8" stroke="hsl(228.5, 77.2%, 51.5%)" stroke-width="1.5"></path><path d="M1151.34 541.03L1242.98 647.5" stroke="hsl(228.5, 77.2%, 51.5%)" stroke-width="1.5"></path><path d="M1151.34 541.03L1295.47 400.61" stroke="hsl(228.5, 77.2%, 51.5%)" stroke-width="1.5"></path><path d="M1151.34 541.03L939.41 516.81" stroke="hsl(228.5, 77.2%, 51.5%)" stroke-width="1.5"></path><path d="M1121.35 641.08L1121.35 641.08" stroke="hsl(228.5, 77.2%, 51.5%)" stroke-width="1.5"></path><path d="M1121.35 641.08L1242.98 647.5" stroke="hsl(228.5, 77.2%, 51.5%)" stroke-width="1.5"></path><path d="M1279.5 -103.19L1279.5 -103.19" stroke="hsl(228.5, 77.2%, 51.5%)" stroke-width="1.5"></path><path d="M1279.5 -103.19L1388.02 -85.83" stroke="hsl(228.5, 77.2%, 51.5%)" stroke-width="1.5"></path><path d="M1279.5 -103.19L1299.79 92.26" stroke="hsl(228.5, 77.2%, 51.5%)" stroke-width="1.5"></path><path d="M1279.5 -103.19L1453.3 60.4" stroke="hsl(228.5, 77.2%, 51.5%)" stroke-width="1.5"></path><path d="M1299.79 92.26L1299.79 92.26" stroke="hsl(228.5, 77.2%, 51.5%)" stroke-width="1.5"></path><path d="M1299.79 92.26L1267.97 197.38" stroke="hsl(228.5, 77.2%, 51.5%)" stroke-width="1.5"></path><path d="M1299.79 92.26L1453.3 60.4" stroke="hsl(228.5, 77.2%, 51.5%)" stroke-width="1.5"></path><path d="M1299.79 92.26L1422.97 215.32" stroke="hsl(228.5, 77.2%, 51.5%)" stroke-width="1.5"></path><path d="M1299.79 92.26L1388.02 -85.83" stroke="hsl(228.5, 77.2%, 51.5%)" stroke-width="1.5"></path><path d="M1267.97 197.38L1267.97 197.38" stroke="hsl(228.5, 77.2%, 51.5%)" stroke-width="1.5"></path><path d="M1267.97 197.38L1422.97 215.32" stroke="hsl(228.5, 77.2%, 51.5%)" stroke-width="1.5"></path><path d="M1267.97 197.38L1295.47 400.61" stroke="hsl(228.5, 77.2%, 51.5%)" stroke-width="1.5"></path><path d="M1267.97 197.38L1406.36 364.14" stroke="hsl(228.5, 77.2%, 51.5%)" stroke-width="1.5"></path><path d="M1295.47 400.61L1295.47 400.61" stroke="hsl(228.5, 77.2%, 51.5%)" stroke-width="1.5"></path><path d="M1295.47 400.61L1406.36 364.14" stroke="hsl(228.5, 77.2%, 51.5%)" stroke-width="1.5"></path><path d="M1295.47 400.61L1266.59 538.8" stroke="hsl(228.5, 77.2%, 51.5%)" stroke-width="1.5"></path><path d="M1295.47 400.61L1426.92 543.08" stroke="hsl(228.5, 77.2%, 51.5%)" stroke-width="1.5"></path><path d="M1266.59 538.8L1266.59 538.8" stroke="hsl(228.5, 77.2%, 51.5%)" stroke-width="1.5"></path><path d="M1266.59 538.8L1242.98 647.5" stroke="hsl(228.5, 77.2%, 51.5%)" stroke-width="1.5"></path><path d="M1266.59 538.8L1426.92 543.08" stroke="hsl(228.5, 77.2%, 51.5%)" stroke-width="1.5"></path><path d="M1266.59 538.8L1121.35 641.08" stroke="hsl(228.5, 77.2%, 51.5%)" stroke-width="1.5"></path><path d="M1266.59 538.8L1406.36 364.14" stroke="hsl(228.5, 77.2%, 51.5%)" stroke-width="1.5"></path><path d="M1242.98 647.5L1242.98 647.5" stroke="hsl(228.5, 77.2%, 51.5%)" stroke-width="1.5"></path><path d="M1242.98 647.5L1426.92 543.08" stroke="hsl(228.5, 77.2%, 51.5%)" stroke-width="1.5"></path><path d="M1242.98 647.5L1457.25 659.23" stroke="hsl(228.5, 77.2%, 51.5%)" stroke-width="1.5"></path><path d="M1388.02 -85.83L1388.02 -85.83" stroke="hsl(228.5, 77.2%, 51.5%)" stroke-width="1.5"></path><path d="M1388.02 -85.83L1453.3 60.4" stroke="hsl(228.5, 77.2%, 51.5%)" stroke-width="1.5"></path><path d="M1453.3 60.4L1453.3 60.4" stroke="hsl(228.5, 77.2%, 51.5%)" stroke-width="1.5"></path><path d="M1453.3 60.4L1558.02 104.01" stroke="hsl(228.5, 77.2%, 51.5%)" stroke-width="1.5"></path><path d="M1453.3 60.4L1422.97 215.32" stroke="hsl(228.5, 77.2%, 51.5%)" stroke-width="1.5"></path><path d="M1453.3 60.4L1607.05 221.6" stroke="hsl(228.5, 77.2%, 51.5%)" stroke-width="1.5"></path><path d="M1422.97 215.32L1422.97 215.32" stroke="hsl(228.5, 77.2%, 51.5%)" stroke-width="1.5"></path><path d="M1422.97 215.32L1406.36 364.14" stroke="hsl(228.5, 77.2%, 51.5%)" stroke-width="1.5"></path><path d="M1422.97 215.32L1558.02 104.01" stroke="hsl(228.5, 77.2%, 51.5%)" stroke-width="1.5"></path><path d="M1406.36 364.14L1406.36 364.14" stroke="hsl(228.5, 77.2%, 51.5%)" stroke-width="1.5"></path><path d="M1406.36 364.14L1426.92 543.08" stroke="hsl(228.5, 77.2%, 51.5%)" stroke-width="1.5"></path><path d="M1426.92 543.08L1426.92 543.08" stroke="hsl(228.5, 77.2%, 51.5%)" stroke-width="1.5"></path><path d="M1426.92 543.08L1457.25 659.23" stroke="hsl(228.5, 77.2%, 51.5%)" stroke-width="1.5"></path><path d="M1426.92 543.08L1570.15 534.29" stroke="hsl(228.5, 77.2%, 51.5%)" stroke-width="1.5"></path><path d="M1426.92 543.08L1539.93 655.51" stroke="hsl(228.5, 77.2%, 51.5%)" stroke-width="1.5"></path><path d="M1457.25 659.23L1457.25 659.23" stroke="hsl(228.5, 77.2%, 51.5%)" stroke-width="1.5"></path><path d="M1457.25 659.23L1539.93 655.51" stroke="hsl(228.5, 77.2%, 51.5%)" stroke-width="1.5"></path><path d="M1457.25 659.23L1570.15 534.29" stroke="hsl(228.5, 77.2%, 51.5%)" stroke-width="1.5"></path><path d="M1558.02 104.01L1558.02 104.01" stroke="hsl(228.5, 77.2%, 51.5%)" stroke-width="1.5"></path><path d="M1558.02 104.01L1607.05 221.6" stroke="hsl(228.5, 77.2%, 51.5%)" stroke-width="1.5"></path><path d="M1607.05 221.6L1607.05 221.6" stroke="hsl(228.5, 77.2%, 51.5%)" stroke-width="1.5"></path><path d="M1607.05 221.6L1602.86 365.02" stroke="hsl(228.5, 77.2%, 51.5%)" stroke-width="1.5"></path><path d="M1607.05 221.6L1422.97 215.32" stroke="hsl(228.5, 77.2%, 51.5%)" stroke-width="1.5"></path><path d="M1607.05 221.6L1406.36 364.14" stroke="hsl(228.5, 77.2%, 51.5%)" stroke-width="1.5"></path><path d="M1607.05 221.6L1570.15 534.29" stroke="hsl(228.5, 77.2%, 51.5%)" stroke-width="1.5"></path><path d="M1602.86 365.02L1602.86 365.02" stroke="hsl(228.5, 77.2%, 51.5%)" stroke-width="1.5"></path><path d="M1570.15 534.29L1570.15 534.29" stroke="hsl(228.5, 77.2%, 51.5%)" stroke-width="1.5"></path><path d="M1570.15 534.29L1539.93 655.51" stroke="hsl(228.5, 77.2%, 51.5%)" stroke-width="1.5"></path><path d="M1539.93 655.51L1539.93 655.51" stroke="hsl(228.5, 77.2%, 51.5%)" stroke-width="1.5"></path><path d="M1539.93 655.51L1242.98 647.5" stroke="hsl(228.5, 77.2%, 51.5%)" stroke-width="1.5"></path><path d="M1539.93 655.51L1266.59 538.8" stroke="hsl(228.5, 77.2%, 51.5%)" stroke-width="1.5"></path><circle r="25" cx="-67.45" cy="504.67" fill="url(#SvgjsRadialGradient1319)"></circle><circle r="25" cx="829.8" cy="398.65" fill="url(#SvgjsRadialGradient1319)"></circle><circle r="25" cx="946.5" cy="656.49" fill="url(#SvgjsRadialGradient1319)"></circle><circle r="25" cx="1586.47" cy="-95.9" fill="url(#SvgjsRadialGradient1319)"></circle><circle r="5" cx="-46.35" cy="684.62" fill="#8b9ad9"></circle><circle r="5" cx="78.48" cy="550.6" fill="#8b9ad9"></circle><circle r="5" cx="88.44" cy="704.24" fill="#8b9ad9"></circle><circle r="5" cx="239.38" cy="527.69" fill="#8b9ad9"></circle><circle r="5" cx="226.07" cy="664.57" fill="#8b9ad9"></circle><circle r="5" cx="362.6" cy="489.46" fill="#8b9ad9"></circle><circle r="5" cx="388.9" cy="706.89" fill="#8b9ad9"></circle><circle r="5" cx="555.6" cy="533.4" fill="#8b9ad9"></circle><circle r="5" cx="524.83" cy="699.05" fill="#8b9ad9"></circle><circle r="5" cx="709.78" cy="674.08" fill="#8b9ad9"></circle><circle r="5" cx="836.39" cy="515.27" fill="#8b9ad9"></circle><circle r="5" cx="814.78" cy="690.38" fill="#8b9ad9"></circle><circle r="5" cx="983.26" cy="397.89" fill="#8b9ad9"></circle><circle r="5" cx="939.41" cy="516.81" fill="#8b9ad9"></circle><circle r="5" cx="1144.49" cy="193.35" fill="#8b9ad9"></circle><circle r="5" cx="1151.34" cy="541.03" fill="#8b9ad9"></circle><circle r="5" cx="1121.35" cy="641.08" fill="#8b9ad9"></circle><circle r="5" cx="1279.5" cy="-103.19" fill="#8b9ad9"></circle><circle r="5" cx="1299.79" cy="92.26" fill="#8b9ad9"></circle><circle r="5" cx="1267.97" cy="197.38" fill="#8b9ad9"></circle><circle r="5" cx="1295.47" cy="400.61" fill="#8b9ad9"></circle><circle r="5" cx="1266.59" cy="538.8" fill="#8b9ad9"></circle><circle r="5" cx="1242.98" cy="647.5" fill="#8b9ad9"></circle><circle r="5" cx="1388.02" cy="-85.83" fill="#8b9ad9"></circle><circle r="5" cx="1453.3" cy="60.4" fill="#8b9ad9"></circle><circle r="5" cx="1422.97" cy="215.32" fill="#8b9ad9"></circle><circle r="5" cx="1406.36" cy="364.14" fill="#8b9ad9"></circle><circle r="5" cx="1426.92" cy="543.08" fill="#8b9ad9"></circle><circle r="5" cx="1457.25" cy="659.23" fill="#8b9ad9"></circle><circle r="5" cx="1558.02" cy="104.01" fill="#8b9ad9"></circle><circle r="5" cx="1607.05" cy="221.6" fill="#8b9ad9"></circle><circle r="5" cx="1602.86" cy="365.02" fill="#8b9ad9"></circle><circle r="5" cx="1570.15" cy="534.29" fill="#8b9ad9"></circle><circle r="5" cx="1539.93" cy="655.51" fill="#8b9ad9"></circle></g><defs><mask id="SvgjsMask1317"><rect width="1440" height="560" fill="#ffffff"></rect></mask><linearGradient x1="15.28%" y1="-39.29%" x2="84.72%" y2="139.29%" gradientUnits="userSpaceOnUse" id="SvgjsLinearGradient1318"><stop stop-color="#0e2a47" offset="0"></stop><stop stop-color="rgba(243, 247, 255, 0.69)" offset="1"></stop></linearGradient><radialGradient id="SvgjsRadialGradient1319"><stop stop-color="#ffffff" offset="0.1"></stop><stop stop-color="#1735b3" offset="0.2"></stop><stop stop-color="rgba(23, 53, 179, 0)" offset="1"></stop></radialGradient></defs></svg>